# xmcd
#
# Track frame offsets:
#	150
#	11636
#	24450
#	38338
#	50139
#	61727
#	75317
#	88497
#	100941
#	112788
#	124567
#	138014
#	149895
#	161918
#	174251
#	186847
#	200280
#	210772
#	223188
#	234726
#	248288
#	259032
#	271080
#	283018
#	298885
#	308980
#	319882
#	329486
#	344256
#
# Disc length: 4714 seconds
#
# Revision: 1
# Processed by: cddbd v1.5.2PL0 Copyright (c) Steve Scherf et al.
# Submitted via: audiograbber 1.83.01
#
DISCID=a312681d
DTITLE=Frankie Lee Sims - Masterly Texas Blues 1953-1957
DYEAR=1900
DGENRE=Blues
TTITLE0=Lucy Mae Blues
TTITLE1=Don't Take It Out On Me
TTITLE2=Married Woman
TTITLE3=Wine and Gin Bounce
TTITLE4=Boogie 'Cross The Country
TTITLE5=Jelly Roll Baker
TTITLE6=I'm So Glad
TTITLE7=Long Gone
TTITLE8=Raggedy and Dirty
TTITLE9=Yeh, Baby!
TTITLE10=No Good Woman
TTITLE11=Walking Boogie
TTITLE12=Frankie's Blues
TTITLE13=Cryin' Won't Help You
TTITLE14=I Done Talked and I Done Talked
TTITLE15=Lucy Mae Blues (Part 2)
TTITLE16=Rhumba My Boogie
TTITLE17=I'll Get Along Somehow
TTITLE18=Hawk Shuffle
TTITLE19=Frankie Lee's 2 O'Clock Jump
TTITLE20=What Will Lucy Do
TTITLE21=Misery Blues
TTITLE22=Hey Little Girl
TTITLE23=Walking With Frankie
TTITLE24=My Talk Didn't Do No Good
TTITLE25=I Warned You Baby
TTITLE26=She Likes To Boogie Real Low
TTITLE27=Well Goodbye Baby
TTITLE28=How Long
EXTD=
EXTT0=
EXTT1=
EXTT2=
EXTT3=
EXTT4=
EXTT5=
EXTT6=
EXTT7=
EXTT8=
EXTT9=
EXTT10=
EXTT11=
EXTT12=
EXTT13=
EXTT14=
EXTT15=
EXTT16=
EXTT17=
EXTT18=
EXTT19=
EXTT20=
EXTT21=
EXTT22=
EXTT23=
EXTT24=
EXTT25=
EXTT26=
EXTT27=
EXTT28=
PLAYORDER=
